# xmcd CD database file
#
# Track frame offsets:
#	150
#	20885
#	45772
#	67735
#	86597
#	106505
#	133562
#	156997
#	176435
#	227792
#
# Disc length: 3378 seconds
#
# Revision: 0
# Processed by: cddbd v1.5PL3 Copyright (c) Steve Scherf et al.
# Submitted via: CDex 1.40Release
#
DISCID=6f0d300a
DTITLE=George Yanagi - 1981.12.19
DYEAR=1900
DGENRE=Blues
TTITLE0=テネシー・ワルツ
TTITLE1=ツイストで踊り明かそう
TTITLE2=本牧綺談
TTITLE3=同じ時代に
TTITLE4=ブライト・ライト・イン・ザ・シティ
TTITLE5=青い瞳のステラ、1962年、夏...
TTITLE6=雨に泣いてる
TTITLE7=酔って候
TTITLE8=さらばミシシッピー
TTITLE9=プリズナー
EXTD=ID3G: 0
EXTT0=
EXTT1=
EXTT2=
EXTT3=
EXTT4=
EXTT5=
EXTT6=
EXTT7=
EXTT8=
EXTT9=
PLAYORDER=
